<?xml version="1.0" encoding="UTF-8"?>
<svg id="Layer_1" data-name="Layer 1" xmlns="http://www.w3.org/2000/svg" viewBox="0 0 699.16 692.7">
  <path d="M532.81,514.88c4.76,6.14,5.28,11.49,8.52,16.99,1.9,3.24,6.25,5.43,8.06,8.94,6.5,12.61,1.34,29.7-6.2,40.69,4.91.88,9.88-.87,14.46-1.03,43.29-1.54,94.32-3.02,137.07,1.01,1.77.17,3.23-.35,4.45,1.53-2.31,3.71-4.91,1.42-8.43,1.44-49.68.35-99.44.34-149.09-.54-10.18,10.02-12.22,17.09-26.69,21.86-21.13,6.97-44.77,6.92-66.76,8.2-1.67,1.24.79,4.03,1.58,5.46,11.43,20.62,30.28,41.59,40.59,62.41,1.12,2.26,4.05,6.47,2.41,8.73l-53.12.97c-21.8-.29-46.32-3.75-67.98-2.51-4.22.24-6.97,3.07-11.94,3.5-7.28.64-14.27-.97-21-1.08-41.6-.66-83.27.55-124.87.08l-1.52-3.53c12.46-25.12,25.12-50.68,38.33-75.53,1.94-3.65,4.28-7.9,7.04-10.98,1.09-2.52-4.57-2.08-5.93-1.92-32.48,3.76-60.8-.14-90.04-15.12l-158.1-.9c-2.91.97-4.69-3.84-2.94-4.06,36.23-1.2,72.84-2.45,108.95,1.05l49.54-.05c-7.26-12.22-13.29-22.26-9.52-37.01,3.81-14.91,10.04-19.54,16.73-31.27,4.6-8.06,7.27-19.04,11.61-27.39,5.45-10.48,13.75-17.26,20.59-26.41,27.22-36.4,27.15-40.75,68.97-62.03,14.06-7.16,26.4-17.51,43.62-15.88l-3.15-8.85c-10.32.82-9.1-14.11-12.64-20.85-2.9-5.52-9.92-9.51-11.71-17.28-1.5-6.48,1.55-11.54,1.13-14.54-.19-1.31-3.01-2.56-3.2-4.94-.8-9.91,11.35-17.03,16.01-23.59,6.08-8.55,7.43-18.89,18.04-24.96,13.31-7.62,21.65-.89,32.98-3.02,4.5-.85,8.72-6.05,17.16-6.83,14.47-1.32,35.6,11.97,41.92,24.84,4.72,9.61,9.51,37.07,8.46,47.55-.47,4.73-3.41,10.43-4.51,15.48-2.2,10.07-1.01,27.99-14.98,27.95l-2.09,8.11c17.48,5.58,38.91,7.27,53.6,19.44,3.5,2.9,6.43,7.09,10.07,9.93,12.44,9.66,21.18,13.66,32.43,26.57,19.19,22.02,20.3,46.14,32.93,69.07,2.26,4.1,6.54,6.9,9.18,10.31ZM374.19,272.51l-1.01-4c-5.16,1.94-11.69.26-15.97,4.51-.09,3.53,15.01-.45,16.98-.51ZM314.18,274.52l-7.82,6.67-11.16,21.33,18.98-12.51c-1.14-4.8-7.62,3.45-10,2l10-17.49ZM366.18,289.52l5.98-1.5c-2.41-5.55-12.28-9.94-15.97-3.52,3.57.56,8.13.9,9,5-1.26.95-12.47-2.05-11.99,3l15.99,3-3-5.99ZM326.53,399.16c36.69,36.9,65.43-5.43,69.37-42.42,1.04-9.79-.09-10.79-9.62-13.62-8.31-2.47-15.3-.15-23.41-4.8-8.51-4.88-10.68-14.68-16.68-21.8-2.82,18.86-18.83,29.16-36.96,30.05-2.48,2.56,5.02,30.87,6.66,35.73,2.34,6.94,5.48,11.69,10.63,16.87ZM333.84,333.17c1.18-1.13,4.92-5.88,3.85-7.65-3.08,5.88-9.43,8.07-13.5,12.99,2.78-.66,7.71-3.48,9.66-5.34ZM408.18,337.52c-6.75-.74-3.04,8.26-4.02,12.31-.08.34-1.71,4.58-2.21,5.95-.8,2.19-3.42,3.77-2.76,6.74,2.55.33,3.76-.55,4.74-2.75,3.03-6.83,1.26-15.29,4.25-22.24ZM306.06,358.64c-1.62.49-5.41-2.48-4.88.38.4,2.17,3.91,10.84,7.01,8.48l-2.13-8.86ZM210.68,596.51c5.63.48,11.81-.35,17.5,0,.51-3.52-5.63-8.22-5.65-10.5,0-1.54,8.99-17.9,10.65-20.01,5.45-6.93,11.07-9.06,18.6-12.4,4.67-2.07-4.7-4-6.92-5.27-5.71-3.26-8.61-8.72-14.97-11.03-16.03-5.81-35.17-6.49-50.73.68-2.17,1-7.97,5.5-8.47,5.51-.55.01-1.98-1.51-1.02-3,.32-.5,5.48-3.74,6.6-4.4,14.86-8.77,30.55-8.61,46.91-4.59.03-2.5-.98-5.94-2.9-7.59-6.21-5.31-36.41-1.83-45.08.59-.48-2.58.46-1.77,1.98-2.46,1.43-.65,13.75-4.53,14.51-4.53h16.5l-14-6.01c-.26-1.06.34-2.56,1.46-2.73,3.83-.57,26.97,9.34,29.39,13.39,2.03,3.39,2.07,11.11,7.14,10.36,3.19-9.08-8.89-11.05-8.99-20,7.5,1.54,7.95,14.76,16.04,7.54,1.88-1.68,9.32-13.83,9.5-16.01.42-5.27-8.36-20.62-7.53-21.53,2.13-.46,2.27,1.09,3.17,2.32,4.24,5.84,5.78,13.06,8.32,19.67l10.49-34.32,3.01-.67c-3.09,17.88-10.05,35.07-10.99,53.51-.56,10.9.13,12.06,3.51,21.47.97,2.69-.12,6.51,2.53,8.47,1.33.77,2.98.9,4.28,1.72,2.28,1.45,8.39,6.47,10.19,6.81,2.46.47,19.35.1,20.48-.99-7.36-17.12-12.79-35-16.07-53.36,5.01-4.27,8.03,1.75,10.08,5.86,7.86,15.79,11.53,39.05,19.78,54.22,3,5.52,10.33,8.95,14.23,13.82,17.22-2.52,37.66,1.59,54.5-.51,3.39-.42,5.19-2.52,8.04-2.96,6.14-.96,27.37-.87,31.8-3.97,1.09-.76,1.51-4.57,6.11-7.12,8.32-4.61,17.59-4.17,23.4-14.6,5.3-9.53.18-22.35.13-31.87-.03-6.47,2.4-21.33,4.28-27.72,2.37-8.05,8.67-21.27,17.71-22.78l-9.8,12.69c-1.84,3.45-3.88,7.44-4.75,11.25-1.12,4.87-3.15,27.66-.98,31.09.97,1.53,10.19-1.23,12.09-1.98,6.08-2.4,15.86-11.09,20.99-12.01,1.45-.26,2.87-.61,2.44,1.45-5.44,3.78-10.45,8.54-16.32,11.68-3.05,1.63-14.77,5.11-15.25,5.77-1.87,2.55,2.25,8.2,2.6,11.06,7.59-3.36,10.01-11.25,19.58-12.91,1-.17,3.68-.8,3.4.9l-7.99,5c12.14-2.92,30.08-7.47,42.04-2.5,2.54,1.06,3.85,4.16,1.44,4.51-1.35.2-8.48-2.6-11.09-2.89-9.69-1.1-25.72.11-32.39,7.88,18.67-7.41,32.58.23,47.31,11.2,2.65,1.97,6.61,4.13,7.69,7.31-1.16,1.22-4.29-.97-5.34-1.66-8.15-5.35-20.08-16.19-30.13-16.89-7.4-.52-28.55,8.42-36.22,11.89-4.38,1.98-10.42,4.38-13.33,8.16,8.45-.98,16.9,10.1,20.52,16.99,1.11,2.11,4.48,9.71,4.48,11.52v18.5c14.87-.66,34.53-2.73,48.45-8.05,6.86-2.62,21.32-20.9,24.04-27.96,3.4-8.82,5.82-22.17.35-30.32-4.53-6.76-7.31-12.03-11.43-18.57-3.36-5.34-8.39-8.08-11.61-13.4-10.02-16.6-14.15-40.11-25-57.99-11.29-18.6-22.72-25.43-39.01-37.75-6.24-4.72-10.51-11.8-17.76-15.48-6.65-3.38-30.75-11.75-37.52-11.48-.26,20.85-7.49,36.67-25.59,47.44-12.87,7.65-21.76,8.21-35.91,3.07-22.44-8.16-27.81-29.61-28.01-51.49-16.74-1.59-28.4,7.68-41.98,14.53-7.08,3.57-15.75,6.82-22.32,10.68-22.43,13.18-32.42,34.74-47.73,54.27-4.81,6.13-10.46,10.09-14.78,17.22-6.63,10.95-9.68,25.69-16,36-8.41,13.72-17.41,19.63-15.2,38.81.6,5.18,10.95,24.11,14.94,27.06,4.96,3.67,10.31,1.54,15.35,2.65,2.9.63,7.54,5.09,11.44,6.56s10.76,2.88,14.77,3.23ZM395.08,399.62c-.31-.43-2.81-.55-3.89-1.61-1.27-1.26-.91-3.98-3-4.5-6.82,11.7-18.2,23.35-32.48,24.03-12.88.62-24.69-9.13-33.04-18.02-1.52,2.32-2.39,3.94-5.51,4,5.88,32.7,44.79,42.67,67.55,19.02,3.07-3.19,13.02-19.31,10.36-22.93ZM250.18,545.51c.62-4.62-1.1-8.94-1.07-13.51.04-4.97,1.85-12.12,1.85-17.23,0-1.19-.56-2.09-1.76-2.26-1.11,7.97-14.68,13.89-14.79,20.68-.08,4.61,11.36,11.63,15.77,12.31ZM301.17,559.51l-3.97-14.51-8.01-18.48c1.15,8.49,5.92,16.17,7.97,24.51l4.01,8.48ZM453.18,549.5l7.98-3.49c-3.23-2.63-4.65-6.4-4.99-10.49-1.3-.28-1.61,1.87-1.74,2.74-.56,3.79.49,7.66-1.25,11.25ZM265.18,559.52c-14.01-8.64-27.15,4.51-32.52,16.96-3.88,8.99-4.59,21.62,8.52,20.02-3.41-12.52.6-22.3,10.68-29.82l13.33-7.16ZM466.04,608.37c1.6-1,1.49-18.33.92-21.14-1.3-6.33-13.42-23.23-20.33-23.71-1.24-.09-16.31,4.69-17.47,5.46-2.88,1.92,2.95,2.59,3.91,3.13,9.7,5.45,21.11,25.92,17.11,37.39l15.85-1.13ZM314.76,576.93c-16.61-14.62-30.39-10.68-51.01-12.37-8.34,1.23-23,16.67-18.31,25.7,11.92,7.01,24.26,15.57,38.5,17,1.95.2,3.74-.88,5.69-.79,3.86.18,8.26,1.94,12.54,1.04.41-2.26-.1-1.6-1.27-2.23-3.29-1.79-8.1-2.26-11.77-4.25-1.39-.76-2.46.09-1.95-2.5,5.5-1.36,19.22,8.03,23.03,5.52,2.68-2.45-4.01-6.21-5.71-7.36-2.83-1.91-11.32-3.95-6.83-7.15l20.98,11.98c1.45-1.1,1.6-1.49,1.34-3.28-1.32-9.25-19.7-17.83-19.8-19.23-.22-3,7.19.49,8.03.94,2.82,1.53,9.5,8.36,11.4,8.5.92.07,4.26-.72,3.52-2.41-.87-2-6.43-7.38-8.4-9.11ZM446.17,605.5c3.96-7.48-10.68-30.82-17.47-30.89-2.83-.03-10.61,3.72-14.32,4.6-8.31,1.97-17.87,1.59-25.46,3.54s-31.68,21.95-36.72,28.28c-.72.91-3.76,4.69-3.02,5.47l22.33-16.16,5.15-1.85c.9-.01.71,2.1.29,2.82-.34.59-9.52,5.15-11.7,6.78-3.96,2.97-8.09,7.72-12.08,10.92,1.98,1.27,5.19-1.02,7.01-1.99,9.98-5.29,18.52-14.45,30.99-14.5-3.48,4.5-10.91,5.48-15.99,8l9.54,1.04c2.04.44,8.78-2.61,9.45.47.8,3.7-16.45,10.41-18,14.47,10.77-.92,20.34-12.96,30.51-13.98,5.4-.54,14.7.97,19.46-1.54,1.93-1.01,4.07-6.21,6.1-7.9,1.7-1.42,11.05-6.74,12.46-4.6l1.46,7.02ZM372.18,584.51h-46.5l-1.5,5c4.79.24,9.7-.32,14.49.01,10.28.73,8.53,1.2,19.28-.74,4.62-.83,11.51.71,14.23-4.27ZM346.08,595.62c-7.82-1.68-15.9-3.06-23.93-1.64-1.7.97.91,4.04.9,6.03-.01,2.93-2.78,5.2-2.82,7-.06,2.38,4.06,5.11.46,7.47-1.02.05-8.79-5.48-10.01-5.59s-3.81,1.52-6,1.62c-14.8.7-27.84.16-41.45-5.99l-35.04,73.98c10.65-.5,21.91.71,32.48,0,17.71-1.19,73.55-12.27,86.88-4.86,1.77.99,2.76,3.11,4.62,3.87l-1.92-52.5c-9.45-.58-8.67-4.28-4.08-11.03l-.09-18.37ZM359.18,593.52c-2.11-.17-9.48.4-10.55,1.93l-.43,8.06,10.99-9.99ZM436.18,606.52c-1.7-1.54-4.57,4.86-5.59,5.9-5.52,5.55-13.95,3.45-20.88,4.12-11.21,1.08-13.72,6.74-23.16,10.84-21.08,9.16-20.01.83-6.36-11.85-11.11-2.15-17.52,7.63-27.87,9.11l1.88,52.87c3.08-.88,5.26-2.88,8.46-4.03,10.16-3.66,16.44-1.04,25.99-.92,18.68.23,37.59-.24,56-.08,8.09.07,16.02-.12,24.04,1.06,1.74.26,1.68-.52,1.5,1.97-4.15-.06-8.33.12-12.48,0-22.57-.66-45.25-.17-68.05.05-5.23.05-10.97-1.43-17-1.08-2.42.14-6.34.75-8.68,1.33-1.01.25-3.01.28-2.78,1.7l115.99,2.01c1-.96-3.29-8.76-4.17-10.32-7.31-13.03-18.32-25.6-26-39-4.1-7.16-9.04-15.72-10.84-23.67ZM352.18,681.5c-2.39-6.21-10.67-7.4-16.67-7.61-13.96-.49-34.46,2.12-48.81,3.64-7.44.79-15.07,2.67-22.53,3.48,0,1.62,19.64-1.39,21.52-1.49,6.31-.34,12.72.34,19.03.03,16.14-.79,31.76-5,47.46,1.95ZM487.18,686.51c.44-.4-3.14-9.25-5.49-9l-.94,5.08-67.11.97c-18.05-2.03-36.66-1.19-54.79-.09l-1.67,3.03c5.68.86,10.96-1.67,16.46-2.03,17.55-1.12,36.43,1.07,53.99,2.08l59.54-.05ZM221.24,684.44l-.55-2.92-2.45,4.51c2.33,3.06,6.1.55,9.41.44,19.48-.65,39.61-.85,58.99-1.01,16.33-.13,33.72,2.6,49.09,2.09,3.31-.11,9.58-.8,12.43-2.54l-126.93-.58Z"/>
  <path d="M581.17,225.51l2.01-4.58,4.01.59-1.08,5.31c.3,1.61,8.05,1.73,6.88,9.91-.66,4.6-12.64,27.55-15.62,33.44-1.55,3.06-10.72,21.54-11.78,22.22-1.94,1.25-4.59,1.37-6.82,1.06-4.54-.63-35.07-16.15-40.6-19.44-6.86-4.09-9.09-6.15-6.15-14.19,3.96-10.84,16.8-35.97,22.96-46.03,3.25-5.3,6.37-6,12.21-4.29,1,1.11-4.04,4.88-2.92,8.36.95,2.93,9.48,2.6,7.91-2.37l-3.96,2.56-2-1.05c1.35-2.46,1.73-11.69,5.47-11.49,2.7.15.18,5.33,1.44,6.45l28.04,13.52ZM585.19,242.52l-48.37-21.09-21.64,44.07,46.54,22.78,23.46-45.76Z"/>
  <path d="M171.91,372.26l-70.13,39.33-36.35-67.59c3.25-4.45,8.28-2.48,8.7-9.07,5.73,1.12,4.11-.5,5.77-1.4,8.55-4.62,17.3-8.9,25.64-13.91l.65-4.11c5.28,2.25,8.1-.1,11.54-3.98l-1.12-2.94,1.09-2.07,6.43,2.94c.62-3.18,6.49-4.43,9.41-5.78,4.84.91,21.09,35.76,24.84,42.14,2.63,4.49,14.89,20.5,14.65,23.97l-1.11,2.47ZM106.26,402.45l60.8-32.63-.64-3c-5.42-7.34-28.25-57.08-33.87-58.18l-8.36,4.39,4.06,3.09-.99,5.96-3.99.35c-.83-1.64-.71-7.28-3.48-6.84-.99.16-8.34,4.69-6.59,6.92l3.98-.99c.66,3.48-1.5,6.39-5.02,6.57l-3.47-5.55-28.07,16.98c-.14.99.34,3.7,2.04,2.99,3.48-1.47,9.52-10.75,13.51-4.48-4.98,5.34-12.53,5.44-15.96,12.07-2.18,1.18-3.57-1.91-5-3.07,0-.29,4.96-3.9,1.45-4.51-1.78-.3-7.6,4.32-4.95,6.96l34.55,52.98Z"/>
  <path d="M166.18,219.5l3.6.97-.61,3.03c2.99-.6,3.85,1.14,3.99,3.95l-12.27,4.95c-1.54-2.14-5.46-2.83-6.77-4.33s-1.12-4.2-2.18-5.33c-5.13-5.47-22.33-10.51-29.4-17.59-20.24-20.28,1.49-52.73,28.62-43.12,19.2,6.8,13.88,27.52,15.03,42.97.38,5.08,4.34,9.93,0,14.5ZM156.18,171.5c1.51-2.04-7.9-6.41-9.73-6.75-14.58-2.71-30.49,10.45-26.26,25.77.74.67,12.96-7.12,13.51-8.01,1.9-3.06-2.46-6.51-1.52-9.99,3.45-.67,2.95,6.3,5.59,6.92l18.4-7.94ZM156.18,175.01v17l6.01,23.49c1.7.19,1.09-3.45,1.03-4.54-.43-8.87-.23-20.38-1.3-28.7-.31-2.41-2.06-11.91-5.74-7.26ZM151.18,177.51c-.84-.83-11.1,3.4-10.84,6.32l16.83,26.69-6-33ZM158.17,215.53c-9.77-7.06-14.65-20.3-20.97-30.57l-10.02,5.57c9.7,8.75,20.79,16.22,28.5,27.01l2.49-2ZM152.18,218.5c-4.66-5.01-9.29-10.54-14.53-14.96-2.18-1.84-14.7-11.39-16.47-10.02l3.46,6.03,27.54,18.95Z"/>
  <path d="M486.82,81.65l32.31,17.41,7.14,17.96c-.03,3.83-16.12,23.3-19.5,28.57-2.7,4.22-15.5,29.25-18.22,29.79l-45.33-27.36,43.6-66.37ZM515.18,100.53l-24.02-11.55c-7.76,7.81-15.04,16.62-21.39,25.62-4.62,6.55-15.01,21.46-17.83,28.21-.53,1.27-1.22,2.32-.32,3.69,3.64,3.4,32.32,22.55,34.57,21.54,4.69-4.4,8.48-9.61,12.21-14.8,3.13-4.35,22.6-32.94,20.7-35.64-2-.99-5.95-1.68-7.48-3.02-5.29-4.62,4.54-12.72,3.55-14.05Z"/>
  <path d="M285.32,85.36c-1.63-8.07-12.04-8.94-16.69-13.8-15.12-15.78-10.92-39.71,7.52-50.58,29.11-17.17,61.73,10.61,47.21,41.21-1.48,3.13-5.92,7.49-6.73,10.27-.73,2.49.2,7.45-1.43,8.61-10.25-2.42-19.96,3.9-29.88,4.29ZM311.98,74.3c.53-.77.38-3.45,1.29-5.19,6.48-12.26,13.34-14.49,7.09-30.28-7.19-18.15-20.06-21.67-38.13-15.77s-19.6,18.76-15.33,35.24c3.24,12.5,6.74,11.79,16.62,17.38,1.63.92,2.95,3.3,4.38,3.7,2.92.81,5.36-2.15,8.29-1.87-1.32-3.6-5.37-19.07-8.7-19.82-2.9-.65-7.63,2.68-7.27-4.57.35-7.13,7.96-2.42,11.94-5.58l1.52,2.97c1.44.05,1.44-7.07,7.97-6.03,5.46.87-.03,8.52-.47,12.54-.31,2.81.36,14.43,1.13,16.87.86,2.71,8.7,1.83,9.66.42ZM299.18,75.51v-21.5c0-1.09,3.09-5.13,1.99-7.5-3.32-.62-4.81,5.37-6.65,5.9-1.73.5-5.86-2.71-5.36.6l10.02,22.5Z"/>
  <path d="M587.93,415.25c-.85,1.06-9.52,3.72-12.08,5.42s-5.48,6.34-8.21,6.83c-1.86.34-15.03-1.62-17.83-2.12-3.71-.67-7.43-1.42-10.94-2.81-3.94-7.96-7.41-15.09-14.59-20.71,2.91-5.23,9.93-15.61-.43-16.38-2.74-4.68,6.42-4.67,9.69-7.11s4.49-7.37,8.94-10.06c2.69-1.63,11.44-4.34,14.49-4.6,3.86-.33,10.92,3.98,14.93,5.58,3.05,1.22,7.35,1.44,10.01,2.99,5.09,2.97,7.23,18.82,12.27,23.78l-6.25,19.19ZM584.94,413.27c.91-1.04,4.34-12.27,4.21-14.14-.21-2.95-5.73-20.98-7.58-22.51-2.53-2.08-8.57-2.64-11.92-4.08-3.52-1.52-9.34-6.13-12.88-6-1.78.07-13.43,3.85-14.86,4.94-3.58,2.73-5.19,12.25-11.73,10.04.44,2.71,2.07,3.11,2.04,6.42-.04,4.86-3.08,9.78-3.96,14.43,6.8,2.1,9.52,14.14,14.54,17,2.24,1.28,20.17,4.43,22.77,4.12,3.48-.42,5.07-3.6,7.89-5.18,2.09-1.17,11.05-4.58,11.46-5.05Z"/>
  <path d="M458.27,621.6c3.75-1.4,5.4-1.95,8.46.87,7.29,6.73,18.4,26.72,25.04,35.96,2.71,3.77,13.67,15.67,14,19.02.4,4.05-6.79,5.14-10.58,1.56-6.35-5.98-21.33-29.63-26.82-38.18-1.91-2.97-11.6-17-10.09-19.23Z"/>
  <path d="M356.18,193.51v-18.5c0-.53-6.31-4.84-7.84-7.16-7.82-11.93-1.32-31.35,12.57-35.1,27.83-7.51,42.15,28.52,19.97,40.97-3.07,1.72-7.51,1.84-9.64,3.36-4.44,3.16-8.23,16.22-15.07,16.43ZM360.18,171.51v14c3.85-.72,7.9-10.84,9.22-11.78,1.08-.77,7.07-1.24,9.7-2.79,16.27-9.61,7.8-35.08-10.42-35.5-17.57-.41-25.66,21.87-14.38,33.46,2.13,2.19,5.7,2.35,5.88,2.62Z"/>
  <path d="M252.89,184.72c7.5-1.68,17.85.8,23.28,6.3,7.34,7.44,7.84,18.24,3.53,27.51-1.24,2.66-4.28,4.59-4.48,7.53-.21,3.1,5.09,14.73,1.44,15.46-3.11.62-9.19-8.73-13.22-9.76-3.3-.84-7.2.13-10.67-.33-9.54-1.27-17.49-11.99-17.39-21.42.08-7.82,9.42-23.47,17.51-25.28ZM273.18,232.5c-5.5-8.2,2.49-11.89,4.72-18.77,2.62-8.07,1.53-14-4.2-20.24-4.34-4.73-9.74-5.86-16.08-6.02-8.87-.23-18.03,13.8-18.38,21.62-.42,9.42,9,19.24,18.44,19.52,2.4.07,4.94-1.18,6.79-.91,3.43.51,4.83,5.55,8.71,4.81Z"/>
  <path d="M595.19,519.52c7.16-1.66,16.96-3.05,18.76-11.74,3.31-15.92-17.15-22.02-24.77-10.78-1.9,2.79-1.46,5.8-3.98,7.51-2.14-28.1,37.94-26.7,36.03,1.54-.76,11.21-13.55,20.87-24.31,16.23-1.39-.6-2.03-1.15-1.73-2.76Z"/>
  <path d="M124.17,502.51c-3.01-2.46-2.09-6.8-4.14-10.35-10.69-18.52-39.76-1.53-25.24,16.31l16.38-15.96c1.5,1.7-11.49,15.35-11.04,20.48.32,3.66,6.85,3.93,9.55,4.54,1.55.35,1.75-.68,1.49,1.97-23.98,9.23-35.3-24.08-14.71-36.19,13.61-8.01,29.3,4.25,27.7,19.21Z"/>
  <path d="M287.18,95.5l4-4.49-1.99-1.49c5.87.84,19.61-7.8,24.01-5.54,1.78.92,3.61,5.07,1.57,6.56s-26.27,5.92-27.58,4.96Z"/>
  <path d="M315.92,97.71c5.68,0-2.64,8.29-7.68,9.35-2.82.59-17.95,1.66-18.04-2.06l25.71-7.3Z"/>
  <path d="M435.08,210.61c.53,2.88,1.64,4.12,4.14,5.45v1.92c-2.73.1-2.47,5.49-4.52,4.51-3.04-1.44.37-6.89-3.5-5.99l-7.52,15.98c-1.94-1.38-1.56-2.02-1.05-4.02.69-2.67,6.04-10.08,5.49-12.4-.34-1.85-4.97-.83-3.94-3.05.88-1.9,8.58-2.21,10.88-2.42Z"/>
  <path d="M317.18,92.52l-.67,3.01-27.32,5.98c-.19-2.15-.32-2.73,1.71-3.78s25.35-6.17,26.28-5.21Z"/>
  <path d="M226.68,348.51l1.49,2.48c-.49.57-.89,1.12-1.65,1.36-1.59.5-12.02,1.06-14.79,1.21-2.17.11-4.39-.15-6.56-.05l.17-3.84c1.08.08,2.81-1.16,3.33-1.16h18Z"/>
  <path d="M206.18,273.51c-2.02.44-2.67-.45-4.04-1.45-2.29-1.68-12.71-11.63-14.63-13.86-.87-1.01-1.5-2.29-1.32-3.68,2.04-.45,2.67.46,4.04,1.45,2.82,2.04,13.01,10.71,14.94,13.06,1.26,1.54,1.17,2.62,1.01,4.48Z"/>
  <path d="M587.18,506.52l-.98,6.96,5.99,1.05-.02,2.96-13.98.03c.19-4.81,3.81-10.37,8.99-10.99Z"/>
  <path d="M454.18,191.52c-.68,4.71.27,3.17,2.2,4.29,4.78,2.77-2.9,3.3-2.21,7.71-3.22-.81-4.44-3.34-7.98-1l2.03-5.48-3.04-3.51,8.99-2.01Z"/>
  <path d="M174.18,229.51c1.87,9.6-4.65,14.1-11.99,7.48-.58-2.48,10.83-8.71,11.99-7.48Z"/>
  <path d="M510.18,287.52c.78.76.23,2.35-1.25,3.26-3.31,2.05-14.62,8.52-17.7,9.3-1.79.45-1.83.45-3.04-1.08-.34-1.6,1.32-2.06,2.29-2.69,3.14-2.04,11.67-6.43,15.15-7.85,1.08-.44,3.78-1.7,4.55-.94Z"/>
  <path d="M257.18,33.51c-.63.64-13.23-1.66-10.99-5.99.63-.64,13.23,1.66,10.99,5.99Z"/>
  <path d="M334.18,19.52c2.44,2.34-8.81,9.14-9.99,7.99-.94-3.28,8.12-9.79,9.99-7.99Z"/>
  <path d="M125.85,506.82c4.96,5.63-6.65,6.01-7.67,3.19l4.49-5.48c.7,1.11,2.47,1.49,3.17,2.29Z"/>
  <path d="M342.18,53.5c-3.21.76-10.62,3.17-10.99-1.98,3.36-.22,10.49-3.48,10.99,1.98Z"/>
  <path d="M258.18,68.52c1.83,1.61-9.66,9.47-9.97,5.5-.18-2.26,7.43-6.5,9.97-5.5Z"/>
  <path d="M290.19.52c2.48-2.84,3.52,6.87,3.55,8.01.03.99.59,2.63-1.07,2.98-3.8.79-2.23-9.09-2.48-10.99Z"/>
  <path d="M420.68,489.51c1.55.15,4.13,1.91,6.5,1.01.07.64-1.33,1.99-1.5,1.99h-25.5v-3c6.63.45,13.97-.62,20.5,0Z"/>
  <path d="M352.18,366.51c2.03.38,1.64,2.12,1.99,3.51,1.05,4.08,2.76,18.49-3.49,18.54l-2.51-4.04h4.01v-18Z"/>
  <path d="M361.18,395.52c-2.01,4.52-11.46,3.89-14.99,1.48l14.99-1.48Z"/>
  <path d="M566.05,270.64c1.32,2.15-2.07,7.09-3.5,8.95l-7.92-4.06,2.71-6.87c1.46-.98,8.28,1.26,8.72,1.98Z"/>
  <path d="M534.13,253.57c1.04,1.19-1.89,8.48-3.55,8.87l-7.25-3.07c-.2-10.47,3.22-8.56,10.79-5.8Z"/>
  <path d="M542.1,267.42l-8.83-2c-1-1.39,2.72-8.42,4.55-8.76l7.27,4.35-2.99,6.41Z"/>
  <path d="M547.33,262.64c4.2.29,9.1,1.78,7.32,6.81-2.13,6.03-6.76,4.1-10.39.4l3.07-7.22Z"/>
  <path d="M561.09,253.61c.69,7.78-6.16,10.92-10.79,4.21l2.53-6.38,8.26,2.18Z"/>
  <path d="M569,267.32l-7.89-2.45,3.56-8.24c5.83,2.6,8.75,4.64,4.33,10.69Z"/>
  <path d="M550.1,248.6c-.7,8.16-4.73,10.15-10.92,4.35l3.62-6.52,7.29,2.17Z"/>
  <path d="M531.27,240.59c3.56.24,9.83,2.25,8,6.46-3.35,7.71-13.91.71-8-6.46Z"/>
  <path d="M576.01,249.7l-.91,6.72c-12.97,1.83-9.06-13.69.91-6.72Z"/>
  <path d="M556.19,248.5c-.45-2.7,1.53-4.62,3.71-5.85l7.06,3.32-3.4,5.46-7.37-2.93Z"/>
  <path d="M554.04,239.68c.77,1.36-.98,5.32-2.51,5.75l-6.41-2.54c-1.35-6.26,7.17-6.31,8.93-3.22Z"/>
  <path d="M138.18,352.52c.45,2.24-2.52,3.18-4.11,4.38-4.04,3.05-8.69,5.16-12.56,8.45l-16.32,8.17.99-4.5,32-16.49Z"/>
  <path d="M139.18,373.52c.36,1.8-.89,2.49-2.06,3.43-2.52,2.03-13.42,8.84-16.23,9.78-1.89.63-2.15,1.41-3.69-.72,2.37-2.36,20.4-13.94,21.97-12.49Z"/>
  <path d="M113.18,345.5l-17.99,8.01c-.6-2.72.83-1.7,1.99-2.47,3.01-2,6.99-4.41,10.33-5.7,1.95-.75,4.76-2.96,5.67.16Z"/>
  <path d="M99.19,335.51c-2.15-4.42,6.81-9.53,7.99-5.48.96,3.32-5.4,5.61-7.99,5.48Z"/>
  <path d="M506.96,122.7c.49.85.14,1.89.22,2.8-1.11,1.17-27.88-13.89-27.98-15.49s2.65-1.39,4.01-1.05c1.97.5,23.06,12.55,23.75,13.73Z"/>
  <path d="M500.05,139.64l.13,2.86c-1.43.19-2.61,0-3.95-.54-5.6-2.28-18.31-11.19-24.06-14.98-1.16-.77-2.58.25-1.98-2.47,10.7,2.05,19.92,10.64,29.86,15.13Z"/>
  <path d="M488.18,154.51c-1.81,1.58-16.74-8.37-19.31-10.18-2.26-1.59-5.19-3.48-6.69-5.8,5.33,0,10.44,3.84,14.92,6.57,1.18.72,13.15,7.6,11.08,9.41Z"/>
  <path d="M493.18,148.51c-1.04,1.1-22.34-13.12-24.67-14.82-1.23-.9-2.79-1.03-2.32-3.17,1.96-.32,3.39.68,5.03,1.46,2.84,1.35,18.53,10.94,20.32,12.68,1.39,1.34,2.09,1.42,1.63,3.86Z"/>
  <path d="M500.05,128.64l.13,2.86c-1.65,1.73-21.24-12.55-24.99-13.49,1.33-1.8,2.08-1.56,4-1.08,6.13,1.53,14.24,9.86,20.85,11.7Z"/>
  <path d="M508.18,117.51c-.89.87-19.69-10.11-22.02-11.51-1.27-.76-2.53.2-1.97-2.48,5.53.96,13.36,5.1,18.3,8.19.98.61,7.26,4.27,5.69,5.8Z"/>
  <path d="M573.87,390.82c3.36,3.72,3.37,8.96-.75,12.12-2.83,2.16-21.17,7.22-24.42,6.59-2.53-.49-5.63-6.48-6.11-8.99-.7-3.71,1.27-6.28,1.94-10.18.3-1.75-.67-3.8-.23-5.15,1.1-3.35,8.89-5.96,12.41-5.77,8.3.45,6.06,4.8,9.53,7.52,1.63,1.28,5.77,1.79,7.63,3.86Z"/>
  <path d="M377.18,164.51c-1.98,2.06-9.92-7.51-11.48-8.97s-8.65-5.68-8.49-7.54c1.7-2.33,3.4-1.8,5.53-.55.79.47,13.03,11.71,13.49,12.5.93,1.59,1.22,2.69.95,4.55Z"/>
  <path d="M270.18,195.52c2.51,2.64-9.42,19.24-12.05,21.43-4.43,3.68-9.24-1.22-7.94-2.43l4.96,1c.13-1.19.5-2.34,1.17-3.34,2.53-3.8,7.42-12.45,10.02-15,1.33-1.3,1.32-2.16,3.84-1.65Z"/>
</svg>