<?xml version="1.0" encoding="UTF-8"?>
<svg id="Layer_1" data-name="Layer 1" xmlns="http://www.w3.org/2000/svg" viewBox="0 0 247.83 286.27">
  <defs>
    <style>
      .cls-1 {
        fill: #fff;
      }
    </style>
  </defs>
  <path d="M95.05.94c35.65,1.45,73.66-2.5,109.05-.2,20.85,1.36,38.53,17.51,42.7,37.82,2.04,67.86.32,136.08.88,204.07-2.02,22.87-20.01,41.52-42.97,43.65l-162.27-.03c-22.64-2.46-40.43-20.93-42.43-43.58V98.04c1.26-10.39,5.17-19.78,11.91-27.74C29.78,49.21,54.43,29.58,73.63,9.41c6.36-4.45,13.8-7.03,21.42-8.47ZM89.69,62.99h-29.28v175.68h29.28V62.99ZM187.29,62.99h-28.67v120.78l-59.17-103.09v54.59l58.56,103.39h29.28V62.99Z"/>
  <polygon class="cls-1" points="187.29 62.99 187.29 238.67 158.01 238.67 99.45 135.27 99.45 80.68 158.62 183.77 158.62 62.99 187.29 62.99"/>
  <rect class="cls-1" x="60.41" y="62.99" width="29.28" height="175.68"/>
</svg>