<?xml version="1.0" encoding="UTF-8"?>
<svg id="Layer_1" data-name="Layer 1" xmlns="http://www.w3.org/2000/svg" viewBox="0 0 304.1 351.27">
  <defs>
    <style>
      .cls-1 {
        fill: #fff;
      }
    </style>
  </defs>
  <path d="M116.63,1.15c43.74,1.78,90.39-3.07,133.81-.24,25.59,1.67,47.28,21.49,52.4,46.4,2.51,83.27.39,166.97,1.08,250.4-2.47,28.07-24.55,50.94-52.73,53.56l-199.12-.04c-27.78-3.02-49.61-25.68-52.06-53.48V120.3c1.55-12.75,6.35-24.28,14.62-34.04,21.92-25.88,52.17-49.96,75.73-74.71,7.8-5.47,16.94-8.63,26.28-10.4ZM223.08,266.66v-108.9c-1.38-21.82-5.39-36.73-22.85-50.51-22.85-18.03-44.6-14.8-69.22-1.89v22.83c11.83-4.76,31.44-9.21,42.27-.73,11.32,8.86,11.95,25.35,13.15,38.5l-.03,100.7h36.68ZM115.3,96.75h-32.93v169.91h36.68l.03-150.85-3.77-19.06Z"/>
  <path class="cls-1" d="M223.08,266.66h-36.68l.03-100.7c-1.2-13.15-1.83-29.64-13.15-38.5-10.84-8.48-30.44-4.03-42.27.73v-22.83c24.62-12.91,46.36-16.14,69.22,1.89,17.46,13.78,21.46,28.69,22.84,50.51v108.9Z"/>
  <polygon class="cls-1" points="115.3 96.75 119.07 115.81 119.04 266.66 82.36 266.66 82.36 96.75 115.3 96.75"/>
</svg>